<?xml version="1.0" encoding="utf-8"?>
<!-- Generator: Adobe Illustrator 17.0.0, SVG Export Plug-In . SVG Version: 6.00 Build 0)  -->
<svg version="1.1" id="Layer_1" xmlns="http://www.w3.org/2000/svg" x="0px" y="0px"
	 width="381.709px" height="111.371px" viewBox="0 0 381.709 111.371" enable-background="new 0 0 381.709 111.371"
	 xml:space="preserve">
<path fill="#FFFFFF" d="M85.373,90.728c-1.218,3.05-2.368,7.204-4.428,10.843c-5.224,9.229-13.101,12.102-22.853,7.929
	c-5.486-2.348-10.422-5.983-15.983-9.261c-0.23,0.189-1.089,0.627-1.558,1.327c-3.742,5.577-9.072,5.714-14.946,4.741
	C6.303,103.11-3.008,89.777,0.863,70.567c1.533-7.607,4.571-14.569,10.249-19.984c2.379-2.269,2.452-4.164,0.91-6.714
	c-1.256-2.078-2.337-4.266-3.446-6.43c-5.945-11.604-3.337-22.412,7.222-30c9.714-6.981,24-7.544,33.972-0.867
	c2.881,1.929,4.64,1.407,7.175-0.277c14.636-9.724,31.027-8.06,42.179,4.162c6.256,6.856,7.839,15.172,7.628,24.142
	c-0.043,1.834,0.753,4.124,1.969,5.482c11.873,13.26,8.231,39.091-7.442,47.599C96.944,90.033,91.154,89.708,85.373,90.728z
	 M77.392,81.97c3.446,0.775,5.938,1.278,8.4,1.899c10.014,2.526,15.326,0.33,20.597-8.571c10.608-17.911,0.768-37.497-20.025-39.913
	c-0.59-0.069-1.128-0.595-2.39-1.298c1.813-0.502,2.875-1.163,3.764-0.981c4.42,0.908,8.794,2.037,13.575,3.182
	c0.296-1.521,0.807-3.25,0.947-5.01c0.864-10.846-6.565-20.889-18.329-24.9C72.527,2.49,61.215,5.836,55.164,14.977
	c-1.342,2.027-2.224,4.579-5.662,2.856c-0.636-4.965-3.134-8.624-8.251-10.188c-8.154-2.493-20.687,1.453-26.127,8.276
	c-5.146,6.455-5.048,14.885,0.446,23.86c1.87,3.055,4.056,5.918,6.132,8.919C12.85,54.966,7.878,63.224,6.19,73.466
	c-2.295,13.921,3.076,22.377,17.16,28.368c5.734,2.439,8.829,1.383,12.927-3.286c2.725-3.104,5.346-6.3,8.324-9.823
	c0.63,1.38,1.116,2.271,1.455,3.215c1.887,5.252,5.397,9.12,10.178,11.857c6.307,3.611,11.871,3.465,16.589-0.327
	c5.43-4.364,7.156-10.074,5.212-16.981C77.722,85.375,77.696,84.181,77.392,81.97z"/>
<path fill="#FFFFFF" d="M212.128,27.702c0.769-0.874,1.413-1.6,2.051-2.33c6.209-7.109,14.258-8.063,21.783-2.37
	c6.673,5.048,10.424,11.887,11.096,20.21c0.554,6.865-2.015,12.549-7.49,16.831c-0.973,0.761-1.977,1.483-3.113,2.332
	c3.51,5.426,3.039,10.615-0.798,15.451c-2.675,3.371-5.132,3.732-11.599,2.057c-1.189,6.422-3.863,11.913-10.382,14.558
	c-3.819,1.549-7.606,1.337-11.401-0.094c-10.866-4.097-16.102-14.551-13.011-26.311c-1.938-0.729-3.989-1.293-5.85-2.234
	c-9.348-4.725-14.436-16.009-11.808-26.144c2-7.716,6.241-13.983,12.752-18.579c9.185-6.483,18.619-5.031,25.593,3.788
	C210.648,25.746,211.318,26.644,212.128,27.702z M212.123,37.682c-1.252-2.121-2.473-3.463-2.894-5.02
	c-3.094-11.44-15.066-15.635-24.164-8.043c-8.166,6.815-11.423,15.825-9.4,26.338c1.67,8.684,7.733,13,16.511,12.363
	c1.459-0.106,2.922-0.159,5.451-0.293c-3.384,5.782-7.888,10.602-5.251,17.067c2.412,5.913,6.699,10.926,12.931,11.624
	c12.725,1.424,14.251-8.578,15.794-18.378c1.944,1.116,3.439,1.958,4.918,2.827c3.374,1.984,6.441,0.981,7.812-2.708
	c0.999-2.688,1.026-5.206-0.78-7.843c-1.207-1.764-3.582-4.244,0.277-6.16c6.523-3.239,9.657-8.667,9.546-15.843
	c-0.122-7.895-3.003-14.565-9.991-18.759c-6.158-3.695-13.269-1.66-16.887,4.616C214.69,31.733,213.745,34.204,212.123,37.682z"/>
<path fill="#F1C40F" d="M377.787,31.019c-1.76,0.34-4.56,0.923-5.698,2.494c-4.489,6.198-9.484,12.038-14.283,18.007
	c6.32-9.542,12.427-19.223,18.185-29.122c2.338-4.019-7.38-3.471-8.966-0.747c-9.376,16.116-19.662,31.665-30.322,46.954
	c-3.147-7.71-7.414-14.773-12.071-21.785c-1.779-2.678-11.418-1.189-9.595,1.555c5.517,8.306,10.753,16.751,13.775,26.322
	c-1.283,1.503-1.509,3.316,0.683,4.464c7.38,3.865,15.127,2.043,20.885-3.765c0.37-0.374,0.676-0.812,0.894-1.278
	c0.132-0.138,0.238-0.283,0.307-0.436c7.2-15.895,19.889-28.039,30-42C382.511,30.403,378.013,30.975,377.787,31.019z"/>
</svg>
