<?xml version="1.0" encoding="utf-8"?>
<svg version="1.1" id="Layer_1" xmlns="http://www.w3.org/2000/svg" x="0px" y="0px"
	 width="110.986px" height="110.986px" viewBox="0 0 110.986 110.986" enable-background="new 0 0 110.986 110.986"
	 xml:space="preserve">
<g>
	<path fill="#F3F1F1" d="M57.776,65.169c-0.871-0.645-3.283-2.777-7.236-6.399C37.291,46.611,28.063,36.751,22.855,29.191
		c-4.792-6.956-7.294-12.526-7.507-16.708c-0.212-4.181,1.768-7.71,5.942-10.585C28.263-2.905,36.375,1.41,45.626,14.84
		c2.659,3.86,8.302,15.746,16.928,35.654c2.21,5.119,3.464,8.257,3.763,9.414c0.777,3.142,0.199,5.377-1.731,6.706
		C62.971,67.727,60.7,67.245,57.776,65.169z M73.452,90.329c2.558,0.46,4.886-0.034,6.985-1.48c2.099-1.446,3.39-3.445,3.872-5.999
		c0.483-2.553-0.01-4.895-1.477-7.025c-1.468-2.13-3.48-3.425-6.037-3.884c-2.558-0.46-4.886,0.034-6.985,1.48
		c-2.099,1.446-3.39,3.445-3.872,5.999c-0.483,2.553,0.01,4.895,1.477,7.025C68.883,88.575,70.895,89.87,73.452,90.329z"/>
</g>
</svg>
